<svg width="40" height="40" viewBox="0 0 40 40" fill="none" xmlns="http://www.w3.org/2000/svg">
<rect width="40" height="40" rx="20" fill="#7943E2"/>
<path d="M17 25H23M17 21H23M17 17H18M21 11H16.2C15.0799 11 14.5198 11 14.092 11.218C13.7157 11.4097 13.4097 11.7157 13.218 12.092C13 12.5198 13 13.0799 13 14.2V25.8C13 26.9201 13 27.4802 13.218 27.908C13.4097 28.2843 13.7157 28.5903 14.092 28.782C14.5198 29 15.0799 29 16.2 29H23.8C24.9201 29 25.4802 29 25.908 28.782C26.2843 28.5903 26.5903 28.2843 26.782 27.908C27 27.4802 27 26.9201 27 25.8V17M21 11L27 17M21 11V15.4C21 15.9601 21 16.2401 21.109 16.454C21.2049 16.6422 21.3578 16.7951 21.546 16.891C21.7599 17 22.0399 17 22.6 17H27" stroke="#FFFEFE" stroke-width="1.5" stroke-linecap="round" stroke-linejoin="round"/>
</svg>
