<svg width="41" height="40" viewBox="0 0 41 40" fill="none" xmlns="http://www.w3.org/2000/svg">
<rect x="0.666992" width="40" height="40" rx="20" fill="#7943E2"/>
<path d="M11.667 25H29.667M20.667 16L18.667 20M20.667 16L22.667 20M20.667 16H16.167C15.504 16 14.8681 15.7366 14.3992 15.2678C13.9304 14.7989 13.667 14.163 13.667 13.5C13.667 12.837 13.9304 12.2011 14.3992 11.7322C14.8681 11.2634 15.504 11 16.167 11C19.667 11 20.667 16 20.667 16ZM20.667 16H25.167C25.83 16 26.4659 15.7366 26.9348 15.2678C27.4036 14.7989 27.667 14.163 27.667 13.5C27.667 12.837 27.4036 12.2011 26.9348 11.7322C26.4659 11.2634 25.83 11 25.167 11C21.667 11 20.667 16 20.667 16ZM14.867 29H26.467C27.5871 29 28.1471 29 28.575 28.782C28.9513 28.5903 29.2573 28.2843 29.449 27.908C29.667 27.4802 29.667 26.9201 29.667 25.8V19.2C29.667 18.0799 29.667 17.5198 29.449 17.092C29.2573 16.7157 28.9513 16.4097 28.575 16.218C28.1471 16 27.5871 16 26.467 16H14.867C13.7469 16 13.1868 16 12.759 16.218C12.3827 16.4097 12.0767 16.7157 11.885 17.092C11.667 17.5198 11.667 18.0799 11.667 19.2V25.8C11.667 26.9201 11.667 27.4802 11.885 27.908C12.0767 28.2843 12.3827 28.5903 12.759 28.782C13.1868 29 13.7469 29 14.867 29Z" stroke="#FFFEFE" stroke-width="1.5" stroke-linecap="round" stroke-linejoin="round"/>
</svg>
