<svg width="118" height="60" viewBox="0 0 118 60" fill="none" xmlns="http://www.w3.org/2000/svg">
<path d="M39.5162 1.74413C42.7915 3.81274 37.4577 5.13098 36.829 5.27294C29.3556 7.00693 17.9681 5.15126 19.6615 2.48437C19.9455 2.03819 20.8784 1.20669 24.0117 0.598276C24.5998 0.486733 25.4009 0.35491 25.9891 0.263647C27.0234 0.141964 27.0234 0.141964 27.5304 0.101403C28.4532 0.0405611 28.4532 0.0405611 28.9095 0.0202805C29.7917 0 29.7917 0 30.2277 0C31.0998 0.0202805 31.0998 0.0202805 31.5257 0.0405611C32.4079 0.0912625 32.4281 0.101403 32.8844 0.141964C33.8275 0.243367 33.8681 0.253507 34.3751 0.324489C35.4601 0.496873 35.5006 0.507014 36.0888 0.628697L36.7276 0.770661C37.5794 0.973466 38.5427 1.21683 39.5162 1.74413C36.5755 0.953186 33.3813 0.74024 30.0452 1.18641C33.3813 0.74024 36.5755 0.963326 39.5162 1.74413Z" fill="url(#paint0_linear_480_1944)"/>
<path d="M44.7896 3.90391C43.9784 3.43746 43.1266 3.03184 42.2545 2.6668C41.9503 2.50455 41.5346 2.31189 41.2101 2.16992C43.228 3.05213 43.3902 3.13325 44.7896 3.90391Z" fill="url(#paint1_linear_480_1944)"/>
<path d="M44.7896 3.90398C46.767 5.12081 48.0751 5.92189 50.3465 7.96009L51.0664 8.63948C53.8956 11.4179 49.2919 14.4296 39.6586 15.7174C28.8187 17.1776 15.7276 15.9101 10.4141 12.8883C7.93986 11.4788 7.58495 9.93744 9.01473 8.54822L9.73469 7.86882C11.6715 6.20582 11.9757 5.95231 13.7705 4.75576C15.1293 3.9344 16.5287 3.09275 18.6176 2.22069L18.9319 2.08887C13.8922 4.23861 17.8266 6.03343 19.155 6.53031C27.7641 9.75491 45.7225 7.67616 43.4815 3.71131C43.1976 3.21444 42.6602 2.87981 42.2546 2.63644C43.1368 3.03191 43.9784 3.44766 44.7896 3.90398Z" fill="url(#paint2_linear_480_1944)"/>
<path d="M53.6928 11.6106C55.4065 13.9935 55.5079 14.1355 56.3698 15.7072C57.7083 18.4248 57.7692 18.5262 58.3472 20.1892L58.6007 20.9498C59.6147 24.1338 53.6015 27.3077 42.6399 28.7781C28.4131 30.6946 11.2152 29.0316 4.23866 25.0667C1.84556 23.7079 0.963351 22.2579 1.41966 20.8484L1.67317 20.0878C2.7886 17.2688 2.82916 17.1573 3.6708 15.6058C5.20199 13.0404 5.26283 12.939 6.36812 11.5193L6.63176 11.1948C5.47577 12.6246 6.00307 14.1659 8.50772 15.5856C14.3384 18.9014 28.697 20.2906 40.5915 18.6885C50.742 17.3195 55.8019 14.2268 53.4494 11.2861L53.6928 11.6106Z" fill="url(#paint3_linear_480_1944)"/>
<path d="M59.5842 24.9858C59.9797 28.1192 60 28.2408 60 30.0458C59.8682 33.2197 59.858 33.4124 59.5133 35.41L59.4524 35.7142C58.8947 38.5839 52.9221 41.2711 42.9745 42.6096C28.3421 44.5768 10.6777 42.8631 3.49839 38.7969C1.69343 37.7727 0.719959 36.6877 0.517154 35.623C0.0811222 32.6519 0.0304208 32.2665 0 29.9545C0.131824 26.7198 0.141964 26.6488 0.436032 24.8945L0.547575 24.2861C0.283928 25.6348 1.22697 27.024 3.52882 28.3321C10.698 32.4085 28.3725 34.1121 43.0049 32.1448C53.9463 30.6745 60.0811 27.5614 59.4828 24.3774L59.5842 24.9858Z" fill="url(#paint4_linear_480_1944)"/>
<path d="M58.2157 40.1963C57.0699 43.0051 57.0293 43.1167 56.1775 44.658C54.6159 47.2032 54.5551 47.3046 53.4397 48.7242L53.3687 48.8053C51.8375 50.7016 47.3149 52.395 40.521 53.3076C28.6366 54.9098 14.2678 53.5206 8.43714 50.2047C7.58536 49.718 6.9668 49.2211 6.56119 48.7242C5.91221 47.842 5.05029 46.6556 4.45201 45.7328C2.97153 43.1065 2.91069 43.0051 2.23129 41.3725C1.97778 40.683 1.61273 39.7602 1.38965 39.0605C1.69386 40.0137 2.61662 40.9568 4.21878 41.8694C11.1953 45.8342 28.3831 47.4973 42.62 45.5807C51.9693 44.3233 57.7087 41.839 58.5706 39.1518L58.2157 40.1963Z" fill="url(#paint5_linear_480_1944)"/>
<path d="M50.0318 52.3241C48.0848 53.9566 47.7806 54.2101 45.9554 55.4067C44.5459 56.2382 43.2175 57.019 41.1387 57.8606C39.8611 58.3677 38.1068 58.8037 35.9469 59.0876C29.8323 59.909 22.5516 59.3411 18.7896 57.8201C16.8629 56.9784 16.6195 56.8669 15.2101 56.0861C13.1617 54.8287 12.7358 54.565 10.9309 53.1454C10.3326 52.608 9.52136 51.9083 8.94336 51.3506C9.29827 51.6954 9.76472 52.03 10.3427 52.3646C15.6562 55.3864 28.7473 56.6539 39.5873 55.1937C45.3672 54.4129 49.3422 53.0237 50.9849 51.4317L50.0318 52.3241Z" fill="url(#paint6_linear_480_1944)"/>
<path d="M33.9999 59.7365C32.9656 59.8582 32.9656 59.8582 32.4586 59.8988C31.5358 59.9596 31.5358 59.9596 31.0795 59.9799C30.2074 60.0002 30.2074 60.0002 29.7714 60.0002C28.8993 59.9799 28.8993 59.9799 28.4734 59.9596C27.5912 59.9089 27.571 59.8987 27.1146 59.8582C26.1513 59.7568 26.131 59.7466 25.624 59.6757C24.539 59.5033 24.4985 59.4931 23.9103 59.3715L23.2715 59.2295C27.2262 60.061 31.9921 60.1218 36.0279 59.3816C34.7199 59.6351 34.588 59.6554 33.9999 59.7365Z" fill="url(#paint7_linear_480_1944)"/>
<path d="M78.92 17.6H81.8V40H74.28C71.9547 40 70.0667 39.264 68.616 37.792C67.1653 36.2987 66.44 34.4213 66.44 32.16C66.44 29.9413 67.1867 28.0853 68.68 26.592C70.1947 25.0773 71.9867 24.32 74.056 24.32C75.3787 24.32 76.616 24.64 77.768 25.28V28.16C76.7013 27.392 75.464 27.008 74.056 27.008C72.776 27.008 71.688 27.488 70.792 28.448C69.9173 29.3867 69.48 30.624 69.48 32.16C69.48 33.7173 69.896 34.9653 70.728 35.904C71.5813 36.8427 72.7653 37.312 74.28 37.312H78.92V17.6ZM93.1588 24.32C96.7854 24.4693 98.5988 25.9733 98.5988 28.832C98.5988 32.3947 96.2628 34.176 91.5908 34.176H90.2788V31.712H91.8148C93.2441 31.712 94.2361 31.4987 94.7908 31.072C95.3454 30.624 95.6228 29.888 95.6228 28.864C95.6228 28.2027 95.3774 27.712 94.8868 27.392C94.3961 27.0507 93.7668 26.88 92.9988 26.88C91.4841 26.88 90.2894 27.4133 89.4148 28.48C88.5614 29.5467 88.1348 30.8267 88.1348 32.32C88.1348 33.8987 88.5934 35.1787 89.5108 36.16C90.4494 37.1413 91.6654 37.632 93.1588 37.632C94.5028 37.632 95.6014 37.3013 96.4548 36.64L98.3748 38.528C96.9028 39.7227 95.1641 40.32 93.1588 40.32C90.7268 40.32 88.7854 39.6053 87.3348 38.176C85.8841 36.7467 85.1588 34.9013 85.1588 32.64C85.1588 30.1227 85.8734 28.0853 87.3028 26.528C88.7321 24.9707 90.6841 24.2347 93.1588 24.32ZM107.299 40.352C105.464 38.624 104.11 36.7147 103.235 34.624C102.382 32.5333 101.528 29.2053 100.675 24.64H103.619C104.451 29.7813 105.678 33.6747 107.299 36.32C108.92 33.6747 110.147 29.7813 110.979 24.64H113.923C113.07 29.2053 112.206 32.5333 111.331 34.624C110.478 36.7147 109.134 38.624 107.299 40.352Z" fill="#FFFEFE"/>
<path fill-rule="evenodd" clip-rule="evenodd" d="M5 47V31.3906C5 30.1845 5.22491 29.0359 5.67995 27.9535C6.12867 26.8862 6.74924 25.9545 7.54543 25.1708C8.33805 24.3699 9.27294 23.7471 10.3407 23.3029C11.4246 22.831 12.5782 22.5971 13.791 22.5971C15.0023 22.5971 16.1471 22.8304 17.2133 23.3045C18.2795 23.7486 19.2131 24.3708 20.0048 25.1708C20.8185 25.9717 21.4504 26.9116 21.9006 27.9813C22.3576 29.0461 22.582 30.186 22.582 31.3906C22.582 32.5947 22.3578 33.7416 21.9042 34.8225C21.4754 35.8739 20.8648 36.8041 20.0736 37.6051C19.2815 38.4069 18.3478 39.0403 17.2817 39.5058L17.2732 39.5095L17.2646 39.5131C16.1798 39.9631 15.0184 40.1841 13.791 40.1841C12.3949 40.1841 11.078 39.8873 9.85295 39.2927V47H5ZM10.0041 38.269C11.1709 38.8944 12.4332 39.207 13.791 39.207C14.8942 39.207 15.9231 39.009 16.8778 38.613C17.8325 38.1961 18.6599 37.6333 19.36 36.9246C20.0601 36.2159 20.601 35.3926 20.9829 34.4546C21.386 33.4958 21.5875 32.4744 21.5875 31.3906C21.5875 30.3067 21.386 29.2958 20.9829 28.3578C20.5798 27.399 20.0176 26.5652 19.2963 25.8565C18.5962 25.1478 17.7688 24.5955 16.8142 24.1994C15.8807 23.7826 14.873 23.5741 13.791 23.5741C12.709 23.5741 11.6907 23.7826 10.736 24.1994C9.78135 24.5955 8.95396 25.1478 8.25387 25.8565C7.55377 26.5444 7.00217 27.3677 6.59909 28.3265C6.196 29.2853 5.99446 30.3067 5.99446 31.3906V46.0229H8.85849V31.3906C8.85849 30.6193 8.97518 29.9211 9.20854 29.2958C9.44191 28.6496 9.77074 28.0972 10.195 27.6387C10.6406 27.1801 11.1603 26.8258 11.7544 26.5756C12.3696 26.3255 13.0485 26.2005 13.791 26.2005C14.5547 26.2005 15.2336 26.3359 15.8277 26.6069C16.4429 26.857 16.9627 27.2114 17.387 27.6699C17.8113 28.1285 18.1401 28.6809 18.3735 29.327C18.6068 29.9523 18.7235 30.6402 18.7235 31.3906C18.7235 32.1409 18.6068 32.8392 18.3735 33.4854C18.1401 34.1107 17.8007 34.6526 17.3551 35.1112C16.9308 35.5698 16.4005 35.9345 15.764 36.2055C15.1488 36.4556 14.4593 36.5807 13.6955 36.5807C12.7036 36.5807 11.8046 36.398 10.9986 36.0325C10.6497 35.8743 10.3182 35.6818 10.0041 35.4551V38.269ZM15.3763 35.3057C14.8997 35.4982 14.3444 35.6036 13.6955 35.6036C12.4632 35.6036 11.4443 35.2823 10.5929 34.6677L9.85295 34.1336V31.3906C9.85295 30.7163 9.95486 30.1341 10.1422 29.6321L10.1457 29.6225C10.3381 29.0899 10.6 28.656 10.9228 28.3047C11.2721 27.9474 11.6757 27.6726 12.1404 27.4761C12.6205 27.2819 13.1664 27.1775 13.791 27.1775C14.434 27.1775 14.9661 27.2911 15.4089 27.4931L15.428 27.5018L15.4474 27.5097C15.9348 27.7079 16.3309 27.9811 16.6511 28.3272C16.9776 28.6801 17.2423 29.1168 17.4363 29.6538L17.4398 29.6634C17.6282 30.1682 17.7291 30.7405 17.7291 31.3906C17.7291 32.0381 17.6289 32.6233 17.438 33.1538C17.2493 33.6575 16.9811 34.0811 16.6358 34.4366L16.6274 34.4452L16.6193 34.454C16.3006 34.7984 15.8926 35.0848 15.3763 35.3057ZM33.4248 27.4902H29.7652V39.8714H24.9123V27.4902H22.1678L24.3878 22.9097H24.9618C25.1633 20.9734 25.9826 19.3497 27.4531 18.113C29.1275 16.6839 31.2381 16 33.7033 16H34.6977V20.5804H33.7033C32.1843 20.5804 31.2307 20.9128 30.6625 21.4063C30.2778 21.7404 29.989 22.2193 29.8525 22.9097H33.4248V27.4902ZM28.7708 23.8868C28.7708 23.5401 28.795 23.2144 28.8435 22.9097C29.1943 20.7055 30.8142 19.6034 33.7033 19.6034V16.9771C33.3627 16.9771 33.0312 16.9911 32.7088 17.0193C30.8822 17.1788 29.3467 17.79 28.1025 18.853C26.6386 20.0828 25.9067 21.7607 25.9067 23.8868H25.0157L23.7428 26.5131H25.9067V38.8944H28.7708V26.5131H32.4304V23.8868H28.7708ZM34.1538 22.9097H49.182C50.8 22.9097 52.2062 23.2099 53.3112 23.9062C54.393 24.5748 55.1536 25.4814 55.5088 26.6267C55.8446 27.6444 56 28.8222 56 30.1399V39.8714H51.2107V30.1399C51.2107 28.6881 50.7756 28.0608 50.2425 27.7822L50.2358 27.7787C50.1404 27.7279 49.898 27.6456 49.4238 27.5831C48.9688 27.5232 48.3721 27.4902 47.6227 27.4902H47.3124V39.8714H42.5231V27.4902H38.9431V39.8714H34.1538V22.9097ZM37.9486 26.5131H43.5176V38.8944H46.318V26.5131H47.6227C49.1714 26.5131 50.2003 26.6486 50.7095 26.9196C51.7066 27.4407 52.2052 28.5141 52.2052 30.1399V38.8944H55.0055V30.1399C55.0055 28.8893 54.857 27.8159 54.56 26.9196C54.2842 26.0233 53.6902 25.2937 52.778 24.731C51.8869 24.1682 50.6883 23.8868 49.182 23.8868H35.1482V38.8944H37.9486V26.5131Z" fill="#FFFEFE"/>
<defs>
<linearGradient id="paint0_linear_480_1944" x1="22.4287" y1="-5.91208e-06" x2="39.7999" y2="0.791759" gradientUnits="userSpaceOnUse">
<stop stop-color="#9011A5"/>
<stop offset="1" stop-color="#201DC1"/>
</linearGradient>
<linearGradient id="paint1_linear_480_1944" x1="41.7087" y1="2.16992" x2="44.6625" y2="2.24833" gradientUnits="userSpaceOnUse">
<stop stop-color="#9011A5"/>
<stop offset="1" stop-color="#201DC1"/>
</linearGradient>
<linearGradient id="paint2_linear_480_1944" x1="14.2659" y1="2.08885" x2="50.309" y2="3.5122" gradientUnits="userSpaceOnUse">
<stop stop-color="#9011A5"/>
<stop offset="1" stop-color="#201DC1"/>
</linearGradient>
<linearGradient id="paint3_linear_480_1944" x1="9.3011" y1="11.1948" x2="56.6305" y2="13.0958" gradientUnits="userSpaceOnUse">
<stop stop-color="#9011A5"/>
<stop offset="1" stop-color="#201DC1"/>
</linearGradient>
<linearGradient id="paint4_linear_480_1944" x1="8.35843" y1="24.2861" x2="57.8248" y2="26.2802" gradientUnits="userSpaceOnUse">
<stop stop-color="#9011A5"/>
<stop offset="1" stop-color="#201DC1"/>
</linearGradient>
<linearGradient id="paint5_linear_480_1944" x1="9.35538" y1="39.0605" x2="56.4597" y2="41.3831" gradientUnits="userSpaceOnUse">
<stop stop-color="#9011A5"/>
<stop offset="1" stop-color="#201DC1"/>
</linearGradient>
<linearGradient id="paint6_linear_480_1944" x1="14.8001" y1="51.3506" x2="49.3636" y2="53.6536" gradientUnits="userSpaceOnUse">
<stop stop-color="#9011A5"/>
<stop offset="1" stop-color="#201DC1"/>
</linearGradient>
<linearGradient id="paint7_linear_480_1944" x1="25.0486" y1="59.2295" x2="35.126" y2="61.3745" gradientUnits="userSpaceOnUse">
<stop stop-color="#9011A5"/>
<stop offset="1" stop-color="#201DC1"/>
</linearGradient>
</defs>
</svg>
