<svg width="24" height="24" viewBox="0 0 24 24" fill="none" xmlns="http://www.w3.org/2000/svg">
<path d="M12.3077 1C7.19111 1 3 5.19111 3 10.3077V15.3846C3 16.4787 3.71394 17.4108 4.69231 17.7644V17.9231C4.69231 20.2467 6.59946 22.1538 8.92308 22.1538H10.0072C10.3014 22.6596 10.8368 23 11.4615 23H13.1538C14.0859 23 14.8462 22.2398 14.8462 21.3077C14.8462 20.3756 14.0859 19.6154 13.1538 19.6154H11.4615C10.8368 19.6154 10.3014 19.9558 10.0072 20.4615H8.92308C7.52164 20.4615 6.38462 19.3245 6.38462 17.9231H8.07692V10.3077H4.69231C4.69231 6.11659 8.11659 2.69231 12.3077 2.69231C16.4988 2.69231 19.9231 6.11659 19.9231 10.3077H16.5385V17.9231H19.0769C20.4684 17.9231 21.6154 16.7761 21.6154 15.3846V10.3077C21.6154 5.19111 17.4243 1 12.3077 1ZM4.69231 12H6.38462V16.2308H5.53846C5.06911 16.2308 4.69231 15.854 4.69231 15.3846V12ZM18.2308 12H19.9231V15.3846C19.9231 15.854 19.5463 16.2308 19.0769 16.2308H18.2308V12Z" fill="#FFFEFE"/>
</svg>
