<svg width="115" height="60" viewBox="0 0 115 60" fill="none" xmlns="http://www.w3.org/2000/svg">
<path d="M39.5162 1.74413C42.7915 3.81274 37.4577 5.13098 36.829 5.27294C29.3556 7.00693 17.9681 5.15126 19.6615 2.48437C19.9455 2.03819 20.8784 1.20669 24.0117 0.598276C24.5998 0.486733 25.4009 0.35491 25.9891 0.263647C27.0234 0.141964 27.0234 0.141964 27.5304 0.101403C28.4532 0.0405611 28.4532 0.0405611 28.9095 0.0202805C29.7917 0 29.7917 0 30.2277 0C31.0998 0.0202805 31.0998 0.0202805 31.5257 0.0405611C32.4079 0.0912625 32.4281 0.101403 32.8844 0.141964C33.8275 0.243367 33.8681 0.253507 34.3751 0.324489C35.4601 0.496873 35.5006 0.507014 36.0888 0.628697L36.7276 0.770661C37.5794 0.973466 38.5427 1.21683 39.5162 1.74413C36.5755 0.953186 33.3813 0.74024 30.0452 1.18641C33.3813 0.74024 36.5755 0.963326 39.5162 1.74413Z" fill="#1E1E1E"/>
<path d="M44.7896 3.90391C43.9784 3.43746 43.1266 3.03184 42.2545 2.6668C41.9503 2.50455 41.5346 2.31189 41.2101 2.16992C43.228 3.05213 43.3902 3.13325 44.7896 3.90391Z" fill="#1E1E1E"/>
<path d="M44.7896 3.90398C46.767 5.12081 48.0751 5.92189 50.3465 7.96009L51.0664 8.63948C53.8956 11.4179 49.2919 14.4296 39.6586 15.7174C28.8187 17.1776 15.7276 15.9101 10.4141 12.8883C7.93986 11.4788 7.58495 9.93744 9.01473 8.54822L9.73469 7.86882C11.6715 6.20582 11.9757 5.95231 13.7705 4.75576C15.1293 3.9344 16.5287 3.09275 18.6176 2.22069L18.9319 2.08887C13.8922 4.23861 17.8266 6.03343 19.155 6.53031C27.7641 9.75491 45.7225 7.67616 43.4815 3.71131C43.1976 3.21444 42.6602 2.87981 42.2546 2.63644C43.1368 3.03191 43.9784 3.44766 44.7896 3.90398Z" fill="#1E1E1E"/>
<path d="M53.6928 11.6106C55.4065 13.9935 55.5079 14.1355 56.3698 15.7072C57.7083 18.4248 57.7692 18.5262 58.3472 20.1892L58.6007 20.9498C59.6147 24.1338 53.6015 27.3077 42.6399 28.7781C28.4131 30.6946 11.2152 29.0316 4.23866 25.0667C1.84556 23.7079 0.963351 22.2579 1.41966 20.8484L1.67317 20.0878C2.7886 17.2688 2.82916 17.1573 3.6708 15.6058C5.20199 13.0404 5.26283 12.939 6.36812 11.5193L6.63176 11.1948C5.47577 12.6246 6.00307 14.1659 8.50772 15.5856C14.3384 18.9014 28.697 20.2906 40.5915 18.6885C50.742 17.3195 55.8019 14.2268 53.4494 11.2861L53.6928 11.6106Z" fill="#1E1E1E"/>
<path d="M59.5842 24.9856C59.9797 28.1189 60 28.2406 60 30.0456C59.8682 33.2195 59.858 33.4121 59.5133 35.4098L59.4524 35.714C58.8947 38.5837 52.9221 41.2708 42.9745 42.6094C28.3421 44.5766 10.6777 42.8629 3.49839 38.7966C1.69343 37.7725 0.719959 36.6874 0.517154 35.6227C0.0811222 32.6516 0.0304208 32.2663 0 29.9543C0.131824 26.7196 0.141964 26.6486 0.436032 24.8943L0.547575 24.2859C0.283928 25.6345 1.22697 27.0238 3.52882 28.3319C10.698 32.4082 28.3725 34.1118 43.0049 32.1446C53.9463 30.6743 60.0811 27.5612 59.4828 24.3772L59.5842 24.9856Z" fill="#1E1E1E"/>
<path d="M58.2157 40.1963C57.0699 43.0051 57.0293 43.1167 56.1775 44.658C54.6159 47.2032 54.5551 47.3046 53.4397 48.7242L53.3687 48.8053C51.8375 50.7016 47.3149 52.395 40.521 53.3076C28.6366 54.9098 14.2678 53.5206 8.43714 50.2047C7.58536 49.718 6.9668 49.2211 6.56119 48.7242C5.91221 47.842 5.05029 46.6556 4.45201 45.7328C2.97153 43.1065 2.91069 43.0051 2.23129 41.3725C1.97778 40.683 1.61273 39.7602 1.38965 39.0605C1.69386 40.0137 2.61662 40.9568 4.21878 41.8694C11.1953 45.8342 28.3831 47.4973 42.62 45.5807C51.9693 44.3233 57.7087 41.839 58.5706 39.1518L58.2157 40.1963Z" fill="#1E1E1E"/>
<path d="M50.0318 52.3241C48.0848 53.9566 47.7806 54.2101 45.9554 55.4067C44.5459 56.2382 43.2175 57.019 41.1387 57.8606C39.8611 58.3677 38.1068 58.8037 35.9469 59.0876C29.8323 59.909 22.5516 59.3411 18.7896 57.8201C16.8629 56.9784 16.6195 56.8669 15.2101 56.0861C13.1617 54.8287 12.7358 54.565 10.9309 53.1454C10.3326 52.608 9.52136 51.9083 8.94336 51.3506C9.29827 51.6954 9.76472 52.03 10.3427 52.3646C15.6562 55.3864 28.7473 56.6539 39.5873 55.1937C45.3672 54.4129 49.3422 53.0237 50.9849 51.4317L50.0318 52.3241Z" fill="#1E1E1E"/>
<path d="M33.9999 59.7365C32.9656 59.8582 32.9656 59.8582 32.4586 59.8988C31.5358 59.9596 31.5358 59.9596 31.0795 59.9799C30.2074 60.0002 30.2074 60.0002 29.7714 60.0002C28.8993 59.9799 28.8993 59.9799 28.4734 59.9596C27.5912 59.9089 27.571 59.8987 27.1146 59.8582C26.1513 59.7568 26.131 59.7466 25.624 59.6757C24.539 59.5033 24.4985 59.4931 23.9103 59.3715L23.2715 59.2295C27.2262 60.061 31.9921 60.1218 36.0279 59.3816C34.7199 59.6351 34.588 59.6554 33.9999 59.7365Z" fill="#1E1E1E"/>
<g filter="url(#filter0_d_490_2132)">
<path d="M5.92 45.296V30.32C5.92 29.2107 6.12267 28.1653 6.528 27.184C6.93333 26.2027 7.488 25.36 8.192 24.656C8.896 23.9307 9.728 23.3653 10.688 22.96C11.648 22.5333 12.672 22.32 13.76 22.32C14.848 22.32 15.8613 22.5333 16.8 22.96C17.76 23.3653 18.592 23.9307 19.296 24.656C20.0213 25.3813 20.5867 26.2347 20.992 27.216C21.3973 28.176 21.6 29.2107 21.6 30.32C21.6 31.4293 21.3973 32.4747 20.992 33.456C20.608 34.416 20.064 35.2587 19.36 35.984C18.656 36.7093 17.824 37.2853 16.864 37.712C15.904 38.1173 14.8693 38.32 13.76 38.32C12.3947 38.32 11.1253 38 9.952 37.36V34.48C10.9973 35.248 12.2347 35.632 13.664 35.632C14.432 35.632 15.1253 35.504 15.744 35.248C16.384 34.9707 16.9173 34.5973 17.344 34.128C17.792 33.6587 18.1333 33.104 18.368 32.464C18.6027 31.8027 18.72 31.088 18.72 30.32C18.72 29.552 18.6027 28.848 18.368 28.208C18.1333 27.5467 17.8027 26.9813 17.376 26.512C16.9493 26.0427 16.4267 25.68 15.808 25.424C15.2107 25.1467 14.528 25.008 13.76 25.008C13.0133 25.008 12.3307 25.136 11.712 25.392C11.1147 25.648 10.592 26.0107 10.144 26.48C9.71733 26.9493 9.38667 27.5147 9.152 28.176C8.91733 28.816 8.8 29.5307 8.8 30.32V45.296H5.92ZM32.5033 25.328H28.8233V38H25.9433V25.328H23.7673L25.0473 22.64H25.9433C25.9433 20.464 26.6793 18.7467 28.1513 17.488C29.6233 16.208 31.5006 15.568 33.7833 15.568V18.256C30.4766 18.256 28.8233 19.7173 28.8233 22.64H32.5033V25.328ZM35.2363 22.64H49.3483C50.8629 22.64 52.0683 22.928 52.9643 23.504C53.8816 24.08 54.4789 24.8267 54.7563 25.744C55.0549 26.6613 55.2043 27.76 55.2043 29.04V38H52.3883V29.04C52.3883 27.376 51.8869 26.2773 50.8843 25.744C50.3723 25.4667 49.3376 25.328 47.7803 25.328H46.4683V38H43.6523V25.328H38.0523V38H35.2363V22.64Z" fill="#FFFEFE"/>
<path d="M5.92 45.296H5.42V45.796H5.92V45.296ZM6.528 27.184L6.06587 26.9931L6.06587 26.9931L6.528 27.184ZM8.192 24.656L8.54559 25.0096L8.55079 25.0042L8.192 24.656ZM10.688 22.96L10.8825 23.4207L10.8911 23.4169L10.688 22.96ZM16.8 22.96L16.593 23.4153L16.6055 23.4206L16.8 22.96ZM19.296 24.656L18.9372 25.0043L18.9424 25.0096L19.296 24.656ZM20.992 27.216L20.5299 27.4069L20.5314 27.4105L20.992 27.216ZM20.992 33.456L20.5298 33.2651L20.5278 33.2703L20.992 33.456ZM19.36 35.984L19.7188 36.3322L19.7188 36.3322L19.36 35.984ZM16.864 37.712L17.0585 38.1727L17.0671 38.1689L16.864 37.712ZM9.952 37.36H9.452V37.6568L9.71257 37.7989L9.952 37.36ZM9.952 34.48L10.248 34.0771L9.452 33.4922V34.48H9.952ZM15.744 35.248L15.9352 35.7101L15.9428 35.7068L15.744 35.248ZM17.344 34.128L16.9822 33.7827L16.974 33.7917L17.344 34.128ZM18.368 32.464L18.8375 32.6361L18.8392 32.6312L18.368 32.464ZM18.368 28.208L17.8968 28.3752L17.8986 28.3801L18.368 28.208ZM17.376 26.512L17.006 26.8483L17.006 26.8483L17.376 26.512ZM15.808 25.424L15.5974 25.8775L15.607 25.882L15.6168 25.886L15.808 25.424ZM11.712 25.392L11.5208 24.93L11.515 24.9324L11.712 25.392ZM10.144 26.48L9.78222 26.1347L9.77403 26.1437L10.144 26.48ZM9.152 28.176L9.62146 28.3481L9.62321 28.3432L9.152 28.176ZM8.8 45.296V45.796H9.3V45.296H8.8ZM6.42 45.296V30.32H5.42V45.296H6.42ZM6.42 30.32C6.42 29.2732 6.61092 28.293 6.99013 27.3749L6.06587 26.9931C5.63442 28.0377 5.42 29.1482 5.42 30.32H6.42ZM6.99013 27.3749C7.37202 26.4503 7.89113 25.664 8.54555 25.0096L7.83845 24.3024C7.08487 25.056 6.49464 25.955 6.06587 26.9931L6.99013 27.3749ZM8.55079 25.0042C9.20665 24.3285 9.98228 23.8007 10.8825 23.4206L10.4935 22.4994C9.47372 22.93 8.58535 23.5328 7.83321 24.3078L8.55079 25.0042ZM10.8911 23.4169C11.7848 23.0197 12.7394 22.82 13.76 22.82V21.82C12.6046 21.82 11.5112 22.047 10.4849 22.5031L10.8911 23.4169ZM13.76 22.82C14.7806 22.82 15.723 23.0197 16.5931 23.4152L17.0069 22.5048C15.9997 22.047 14.9154 21.82 13.76 21.82V22.82ZM16.6055 23.4206C17.5057 23.8007 18.2813 24.3285 18.9372 25.0042L19.6548 24.3078C18.9027 23.5328 18.0143 22.93 16.9945 22.4994L16.6055 23.4206ZM18.9424 25.0096C19.6196 25.6867 20.1488 26.4842 20.5299 27.4069L21.4541 27.0251C21.0246 25.9851 20.4231 25.076 19.6496 24.3024L18.9424 25.0096ZM20.5314 27.4105C20.9091 28.305 21.1 29.2731 21.1 30.32H22.1C22.1 29.1482 21.8856 28.047 21.4526 27.0215L20.5314 27.4105ZM21.1 30.32C21.1 31.3668 20.9091 32.347 20.5299 33.2651L21.4541 33.6469C21.8856 32.6023 22.1 31.4918 22.1 30.32H21.1ZM20.5278 33.2703C20.1674 34.1712 19.6587 34.9583 19.0012 35.6358L19.7188 36.3322C20.4693 35.559 21.0486 34.6608 21.4562 33.6417L20.5278 33.2703ZM19.0012 35.6358C18.3434 36.3135 17.5649 36.8533 16.6609 37.2551L17.0671 38.1689C18.0831 37.7173 18.9686 37.1052 19.7188 36.3322L19.0012 35.6358ZM16.6695 37.2514C15.775 37.6291 14.8069 37.82 13.76 37.82V38.82C14.9318 38.82 16.033 38.6056 17.0585 38.1726L16.6695 37.2514ZM13.76 37.82C12.4764 37.82 11.2897 37.5201 10.1914 36.9211L9.71257 37.7989C10.961 38.4799 12.3129 38.82 13.76 38.82V37.82ZM10.452 37.36V34.48H9.452V37.36H10.452ZM9.65596 34.8829C10.7959 35.7204 12.1396 36.132 13.664 36.132V35.132C12.3297 35.132 11.1988 34.7756 10.248 34.0771L9.65596 34.8829ZM13.664 36.132C14.488 36.132 15.2476 35.9945 15.9352 35.71L15.5528 34.786C15.003 35.0135 14.376 35.132 13.664 35.132V36.132ZM15.9428 35.7068C16.6414 35.4041 17.235 34.9912 17.714 34.4643L16.974 33.7917C16.5997 34.2035 16.1266 34.5373 15.5452 34.7892L15.9428 35.7068ZM17.7057 34.4732C18.2035 33.9517 18.5803 33.3373 18.8374 32.6361L17.8986 32.2919C17.6863 32.8707 17.3805 33.3656 16.9823 33.7828L17.7057 34.4732ZM18.8392 32.6312C19.0946 31.9113 19.22 31.1396 19.22 30.32H18.22C18.22 31.0364 18.1107 31.694 17.8968 32.2968L18.8392 32.6312ZM19.22 30.32C19.22 29.5006 19.0947 28.7375 18.8374 28.0359L17.8986 28.3801C18.1106 28.9585 18.22 29.6034 18.22 30.32H19.22ZM18.8392 28.0408C18.5847 27.3236 18.2218 26.6991 17.746 26.1757L17.006 26.8483C17.3835 27.2636 17.6819 27.7697 17.8968 28.3752L18.8392 28.0408ZM17.746 26.1757C17.267 25.6487 16.6821 25.2446 15.9992 24.962L15.6168 25.886C16.1712 26.1154 16.6317 26.4366 17.006 26.8483L17.746 26.1757ZM16.0186 24.9705C15.3452 24.6579 14.5887 24.508 13.76 24.508V25.508C14.4673 25.508 15.0762 25.6355 15.5974 25.8775L16.0186 24.9705ZM13.76 24.508C12.9553 24.508 12.2067 24.6462 11.5208 24.93L11.9032 25.854C12.4546 25.6258 13.0714 25.508 13.76 25.508V24.508ZM11.515 24.9324C10.8557 25.215 10.277 25.6165 9.78232 26.1348L10.5057 26.8252C10.907 26.4048 11.3736 26.081 11.909 25.8516L11.515 24.9324ZM9.77403 26.1437C9.2982 26.6671 8.93528 27.2916 8.68079 28.0088L9.62321 28.3432C9.83806 27.7377 10.1365 27.2316 10.514 26.8163L9.77403 26.1437ZM8.68256 28.0039C8.42476 28.707 8.3 29.4811 8.3 30.32H9.3C9.3 29.5803 9.40991 28.925 9.62144 28.3481L8.68256 28.0039ZM8.3 30.32V45.296H9.3V30.32H8.3ZM8.8 44.796H5.92V45.796H8.8V44.796ZM32.5033 25.328V25.828H33.0033V25.328H32.5033ZM28.8233 25.328V24.828H28.3233V25.328H28.8233ZM28.8233 38V38.5H29.3233V38H28.8233ZM25.9433 38H25.4433V38.5H25.9433V38ZM25.9433 25.328H26.4433V24.828H25.9433V25.328ZM23.7673 25.328L23.3158 25.113L22.9754 25.828H23.7673V25.328ZM25.0473 22.64V22.14H24.7315L24.5958 22.425L25.0473 22.64ZM25.9433 22.64V23.14H26.4433V22.64H25.9433ZM28.1513 17.488L28.4762 17.868L28.4793 17.8653L28.1513 17.488ZM33.7833 15.568H34.2833V15.068H33.7833V15.568ZM33.7833 18.256V18.756H34.2833V18.256H33.7833ZM28.8233 22.64H28.3233V23.14H28.8233V22.64ZM32.5033 22.64H33.0033V22.14H32.5033V22.64ZM32.5033 24.828H28.8233V25.828H32.5033V24.828ZM28.3233 25.328V38H29.3233V25.328H28.3233ZM28.8233 37.5H25.9433V38.5H28.8233V37.5ZM26.4433 38V25.328H25.4433V38H26.4433ZM25.9433 24.828H23.7673V25.828H25.9433V24.828ZM24.2187 25.543L25.4987 22.855L24.5958 22.425L23.3158 25.113L24.2187 25.543ZM25.0473 23.14H25.9433V22.14H25.0473V23.14ZM26.4433 22.64C26.4433 20.5899 27.1298 19.0193 28.4762 17.868L27.8263 17.108C26.2287 18.474 25.4433 20.3381 25.4433 22.64H26.4433ZM28.4793 17.8653C29.8452 16.6776 31.5995 16.068 33.7833 16.068V15.068C31.4017 15.068 29.4013 15.7384 27.8232 17.1107L28.4793 17.8653ZM33.2833 15.568V18.256H34.2833V15.568H33.2833ZM33.7833 17.756C32.067 17.756 30.6864 18.1339 29.7321 18.9774C28.7661 19.8312 28.3233 21.0845 28.3233 22.64H29.3233C29.3233 21.2728 29.7071 20.3341 30.3944 19.7266C31.0934 19.1088 32.1928 18.756 33.7833 18.756V17.756ZM28.8233 23.14H32.5033V22.14H28.8233V23.14ZM32.0033 22.64V25.328H33.0033V22.64H32.0033ZM35.2363 22.64V22.14H34.7363V22.64H35.2363ZM52.9643 23.504L52.6939 23.9246L52.6984 23.9274L52.9643 23.504ZM54.7563 25.744L54.2775 25.8887L54.2808 25.8988L54.7563 25.744ZM55.2043 38V38.5H55.7043V38H55.2043ZM52.3883 38H51.8883V38.5H52.3883V38ZM50.8843 25.744L50.6461 26.1837L50.6494 26.1854L50.8843 25.744ZM46.4683 25.328V24.828H45.9683V25.328H46.4683ZM46.4683 38V38.5H46.9683V38H46.4683ZM43.6523 38H43.1523V38.5H43.6523V38ZM43.6523 25.328H44.1523V24.828H43.6523V25.328ZM38.0523 25.328V24.828H37.5523V25.328H38.0523ZM38.0523 38V38.5H38.5523V38H38.0523ZM35.2363 38H34.7363V38.5H35.2363V38ZM35.2363 23.14H49.3483V22.14H35.2363V23.14ZM49.3483 23.14C50.8056 23.14 51.9058 23.418 52.6939 23.9246L53.2346 23.0834C52.2307 22.438 50.9202 22.14 49.3483 22.14V23.14ZM52.6984 23.9274C53.5277 24.4482 54.0398 25.102 54.2776 25.8887L55.2349 25.5993C54.918 24.5513 54.2355 23.7118 53.2301 23.0806L52.6984 23.9274ZM54.2808 25.8988C54.5589 26.7528 54.7043 27.7965 54.7043 29.04H55.7043C55.7043 27.7235 55.551 26.5698 55.2317 25.5892L54.2808 25.8988ZM54.7043 29.04V38H55.7043V29.04H54.7043ZM55.2043 37.5H52.3883V38.5H55.2043V37.5ZM52.8883 38V29.04H51.8883V38H52.8883ZM52.8883 29.04C52.8883 27.287 52.355 25.96 51.1191 25.3026L50.6494 26.1854C51.4188 26.5947 51.8883 27.465 51.8883 29.04H52.8883ZM51.1224 25.3044C50.7864 25.1224 50.3282 25.0085 49.7907 24.9364C49.2435 24.8631 48.5715 24.828 47.7803 24.828V25.828C48.5464 25.828 49.1704 25.8622 49.6578 25.9276C50.1549 25.9942 50.4701 26.0883 50.6461 26.1836L51.1224 25.3044ZM47.7803 24.828H46.4683V25.828H47.7803V24.828ZM45.9683 25.328V38H46.9683V25.328H45.9683ZM46.4683 37.5H43.6523V38.5H46.4683V37.5ZM44.1523 38V25.328H43.1523V38H44.1523ZM43.6523 24.828H38.0523V25.828H43.6523V24.828ZM37.5523 25.328V38H38.5523V25.328H37.5523ZM38.0523 37.5H35.2363V38.5H38.0523V37.5ZM35.7363 38V22.64H34.7363V38H35.7363Z" fill="#1E1E1E"/>
</g>
<path d="M78.92 17.6H81.8V40H74.28C71.9547 40 70.0667 39.264 68.616 37.792C67.1653 36.2987 66.44 34.4213 66.44 32.16C66.44 29.9413 67.1867 28.0853 68.68 26.592C70.1947 25.0773 71.9867 24.32 74.056 24.32C75.3787 24.32 76.616 24.64 77.768 25.28V28.16C76.7013 27.392 75.464 27.008 74.056 27.008C72.776 27.008 71.688 27.488 70.792 28.448C69.9173 29.3867 69.48 30.624 69.48 32.16C69.48 33.7173 69.896 34.9653 70.728 35.904C71.5813 36.8427 72.7653 37.312 74.28 37.312H78.92V17.6ZM93.1588 24.32C96.7854 24.4693 98.5988 25.9733 98.5988 28.832C98.5988 32.3947 96.2628 34.176 91.5908 34.176H90.2788V31.712H91.8148C93.2441 31.712 94.2361 31.4987 94.7908 31.072C95.3454 30.624 95.6228 29.888 95.6228 28.864C95.6228 28.2027 95.3774 27.712 94.8868 27.392C94.3961 27.0507 93.7668 26.88 92.9988 26.88C91.4841 26.88 90.2894 27.4133 89.4148 28.48C88.5614 29.5467 88.1348 30.8267 88.1348 32.32C88.1348 33.8987 88.5934 35.1787 89.5108 36.16C90.4494 37.1413 91.6654 37.632 93.1588 37.632C94.5028 37.632 95.6014 37.3013 96.4548 36.64L98.3748 38.528C96.9028 39.7227 95.1641 40.32 93.1588 40.32C90.7268 40.32 88.7854 39.6053 87.3348 38.176C85.8841 36.7467 85.1588 34.9013 85.1588 32.64C85.1588 30.1227 85.8734 28.0853 87.3028 26.528C88.7321 24.9707 90.6841 24.2347 93.1588 24.32ZM107.299 40.352C105.464 38.624 104.11 36.7147 103.235 34.624C102.382 32.5333 101.528 29.2053 100.675 24.64H103.619C104.451 29.7813 105.678 33.6747 107.299 36.32C108.92 33.6747 110.147 29.7813 110.979 24.64H113.923C113.07 29.2053 112.206 32.5333 111.331 34.624C110.478 36.7147 109.134 38.624 107.299 40.352Z" fill="#1E1E1E"/>
<defs>
<filter id="filter0_d_490_2132" x="1.91998" y="15.5681" width="57.2842" height="37.7278" filterUnits="userSpaceOnUse" color-interpolation-filters="sRGB">
<feFlood flood-opacity="0" result="BackgroundImageFix"/>
<feColorMatrix in="SourceAlpha" type="matrix" values="0 0 0 0 0 0 0 0 0 0 0 0 0 0 0 0 0 0 127 0" result="hardAlpha"/>
<feOffset dy="4"/>
<feGaussianBlur stdDeviation="2"/>
<feComposite in2="hardAlpha" operator="out"/>
<feColorMatrix type="matrix" values="0 0 0 0 0 0 0 0 0 0 0 0 0 0 0 0 0 0 0.25 0"/>
<feBlend mode="normal" in2="BackgroundImageFix" result="effect1_dropShadow_490_2132"/>
<feBlend mode="normal" in="SourceGraphic" in2="effect1_dropShadow_490_2132" result="shape"/>
</filter>
</defs>
</svg>
