<svg width="40" height="40" viewBox="0 0 40 40" fill="none" xmlns="http://www.w3.org/2000/svg">
<rect width="40" height="40" rx="20" fill="#7943E2"/>
<path d="M20 26H20.01M17.2 29H22.8C23.9201 29 24.4802 29 24.908 28.782C25.2843 28.5903 25.5903 28.2843 25.782 27.908C26 27.4802 26 26.9201 26 25.8V14.2C26 13.0799 26 12.5198 25.782 12.092C25.5903 11.7157 25.2843 11.4097 24.908 11.218C24.4802 11 23.9201 11 22.8 11H17.2C16.0799 11 15.5198 11 15.092 11.218C14.7157 11.4097 14.4097 11.7157 14.218 12.092C14 12.5198 14 13.0799 14 14.2V25.8C14 26.9201 14 27.4802 14.218 27.908C14.4097 28.2843 14.7157 28.5903 15.092 28.782C15.5198 29 16.0799 29 17.2 29Z" stroke="#FFFEFE" stroke-width="1.5" stroke-linecap="round" stroke-linejoin="round"/>
</svg>
