<svg width="115" height="60" viewBox="0 0 115 60" fill="none" xmlns="http://www.w3.org/2000/svg">
<path d="M39.5162 1.74413C42.7915 3.81274 37.4577 5.13098 36.829 5.27294C29.3556 7.00693 17.9681 5.15126 19.6615 2.48437C19.9455 2.03819 20.8784 1.20669 24.0117 0.598276C24.5998 0.486733 25.4009 0.35491 25.9891 0.263647C27.0234 0.141964 27.0234 0.141964 27.5304 0.101403C28.4532 0.0405611 28.4532 0.0405611 28.9095 0.0202805C29.7917 0 29.7917 0 30.2277 0C31.0998 0.0202805 31.0998 0.0202805 31.5257 0.0405611C32.4079 0.0912625 32.4281 0.101403 32.8844 0.141964C33.8275 0.243367 33.8681 0.253507 34.3751 0.324489C35.4601 0.496873 35.5006 0.507014 36.0888 0.628697L36.7276 0.770661C37.5794 0.973466 38.5427 1.21683 39.5162 1.74413C36.5755 0.953186 33.3813 0.74024 30.0452 1.18641C33.3813 0.74024 36.5755 0.963326 39.5162 1.74413Z" fill="url(#paint0_linear_492_637)"/>
<path d="M44.7897 3.90403C43.9785 3.43758 43.1267 3.03197 42.2547 2.66692C41.9504 2.50467 41.5347 2.31201 41.2102 2.17004C43.2281 3.05225 43.3904 3.13337 44.7897 3.90403Z" fill="url(#paint1_linear_492_637)"/>
<path d="M44.7896 3.90398C46.767 5.12081 48.0751 5.92189 50.3465 7.96009L51.0664 8.63948C53.8956 11.4179 49.2919 14.4296 39.6586 15.7174C28.8187 17.1776 15.7276 15.9101 10.4141 12.8883C7.93986 11.4788 7.58495 9.93744 9.01473 8.54822L9.73469 7.86882C11.6715 6.20582 11.9757 5.95231 13.7705 4.75576C15.1293 3.9344 16.5287 3.09275 18.6176 2.22069L18.9319 2.08887C13.8922 4.23861 17.8266 6.03343 19.155 6.53031C27.7641 9.75491 45.7225 7.67616 43.4815 3.71131C43.1976 3.21444 42.6602 2.87981 42.2546 2.63644C43.1368 3.03191 43.9784 3.44766 44.7896 3.90398Z" fill="url(#paint2_linear_492_637)"/>
<path d="M53.6926 11.6106C55.4064 13.9935 55.5078 14.1355 56.3697 15.7072C57.7082 18.4248 57.769 18.5262 58.347 20.1892L58.6005 20.9498C59.6146 24.1338 53.6014 27.3077 42.6398 28.7781C28.4129 30.6946 11.215 29.0316 4.23854 25.0667C1.84543 23.7079 0.963229 22.2579 1.41954 20.8484L1.67305 20.0878C2.78848 17.2688 2.82904 17.1573 3.67068 15.6058C5.20186 13.0404 5.26271 12.939 6.368 11.5193L6.63164 11.1948C5.47565 12.6246 6.00295 14.1659 8.50759 15.5856C14.3383 18.9014 28.6969 20.2906 40.5914 18.6885C50.7418 17.3195 55.8018 14.2268 53.4493 11.2861L53.6926 11.6106Z" fill="url(#paint3_linear_492_637)"/>
<path d="M59.5842 24.9856C59.9797 28.1189 60 28.2406 60 30.0456C59.8682 33.2195 59.858 33.4121 59.5133 35.4098L59.4524 35.714C58.8947 38.5837 52.9221 41.2708 42.9745 42.6094C28.3421 44.5766 10.6777 42.8629 3.49839 38.7966C1.69343 37.7725 0.719959 36.6874 0.517154 35.6227C0.0811222 32.6516 0.0304208 32.2663 0 29.9543C0.131824 26.7196 0.141964 26.6486 0.436032 24.8943L0.547575 24.2859C0.283928 25.6345 1.22697 27.0238 3.52882 28.3319C10.698 32.4082 28.3725 34.1118 43.0049 32.1446C53.9463 30.6743 60.0811 27.5612 59.4828 24.3772L59.5842 24.9856Z" fill="url(#paint4_linear_492_637)"/>
<path d="M58.2157 40.1963C57.0699 43.0051 57.0293 43.1167 56.1775 44.658C54.6159 47.2032 54.5551 47.3046 53.4397 48.7242L53.3687 48.8053C51.8375 50.7016 47.3149 52.395 40.521 53.3076C28.6366 54.9098 14.2678 53.5206 8.43714 50.2047C7.58536 49.718 6.9668 49.2211 6.56119 48.7242C5.91221 47.842 5.05029 46.6556 4.45201 45.7328C2.97153 43.1065 2.91069 43.0051 2.23129 41.3725C1.97778 40.683 1.61273 39.7602 1.38965 39.0605C1.69386 40.0137 2.61662 40.9568 4.21878 41.8694C11.1953 45.8342 28.3831 47.4973 42.62 45.5807C51.9693 44.3233 57.7087 41.839 58.5706 39.1518L58.2157 40.1963Z" fill="url(#paint5_linear_492_637)"/>
<path d="M50.0318 52.3241C48.0848 53.9566 47.7806 54.2101 45.9554 55.4067C44.5459 56.2382 43.2175 57.019 41.1387 57.8606C39.8611 58.3677 38.1068 58.8037 35.9469 59.0876C29.8323 59.909 22.5516 59.3411 18.7896 57.8201C16.8629 56.9784 16.6195 56.8669 15.2101 56.0861C13.1617 54.8287 12.7358 54.565 10.9309 53.1454C10.3326 52.608 9.52136 51.9083 8.94336 51.3506C9.29827 51.6954 9.76472 52.03 10.3427 52.3646C15.6562 55.3864 28.7473 56.6539 39.5873 55.1937C45.3672 54.4129 49.3422 53.0237 50.9849 51.4317L50.0318 52.3241Z" fill="url(#paint6_linear_492_637)"/>
<path d="M33.9999 59.7365C32.9656 59.8582 32.9656 59.8582 32.4586 59.8988C31.5358 59.9596 31.5358 59.9596 31.0795 59.9799C30.2074 60.0002 30.2074 60.0002 29.7714 60.0002C28.8993 59.9799 28.8993 59.9799 28.4734 59.9596C27.5912 59.9089 27.571 59.8987 27.1146 59.8582C26.1513 59.7568 26.131 59.7466 25.624 59.6757C24.539 59.5033 24.4985 59.4931 23.9103 59.3715L23.2715 59.2295C27.2262 60.061 31.9921 60.1218 36.0279 59.3816C34.7199 59.6351 34.588 59.6554 33.9999 59.7365Z" fill="url(#paint7_linear_492_637)"/>
<mask id="path-9-outside-1_492_637" maskUnits="userSpaceOnUse" x="4" y="14" width="53" height="33" fill="black">
<rect fill="white" x="4" y="14" width="53" height="33"/>
<path d="M5.92 45.296V30.32C5.92 29.2107 6.12267 28.1653 6.528 27.184C6.93333 26.2027 7.488 25.36 8.192 24.656C8.896 23.9307 9.728 23.3653 10.688 22.96C11.648 22.5333 12.672 22.32 13.76 22.32C14.848 22.32 15.8613 22.5333 16.8 22.96C17.76 23.3653 18.592 23.9307 19.296 24.656C20.0213 25.3813 20.5867 26.2347 20.992 27.216C21.3973 28.176 21.6 29.2107 21.6 30.32C21.6 31.4293 21.3973 32.4747 20.992 33.456C20.608 34.416 20.064 35.2587 19.36 35.984C18.656 36.7093 17.824 37.2853 16.864 37.712C15.904 38.1173 14.8693 38.32 13.76 38.32C12.3947 38.32 11.1253 38 9.952 37.36V34.48C10.9973 35.248 12.2347 35.632 13.664 35.632C14.432 35.632 15.1253 35.504 15.744 35.248C16.384 34.9707 16.9173 34.5973 17.344 34.128C17.792 33.6587 18.1333 33.104 18.368 32.464C18.6027 31.8027 18.72 31.088 18.72 30.32C18.72 29.552 18.6027 28.848 18.368 28.208C18.1333 27.5467 17.8027 26.9813 17.376 26.512C16.9493 26.0427 16.4267 25.68 15.808 25.424C15.2107 25.1467 14.528 25.008 13.76 25.008C13.0133 25.008 12.3307 25.136 11.712 25.392C11.1147 25.648 10.592 26.0107 10.144 26.48C9.71733 26.9493 9.38667 27.5147 9.152 28.176C8.91733 28.816 8.8 29.5307 8.8 30.32V45.296H5.92ZM32.5033 25.328H28.8233V38H25.9433V25.328H23.7673L25.0473 22.64H25.9433C25.9433 20.464 26.6793 18.7467 28.1513 17.488C29.6233 16.208 31.5006 15.568 33.7833 15.568V18.256C30.4766 18.256 28.8233 19.7173 28.8233 22.64H32.5033V25.328ZM35.2363 22.64H49.3483C50.8629 22.64 52.0683 22.928 52.9643 23.504C53.8816 24.08 54.4789 24.8267 54.7563 25.744C55.0549 26.6613 55.2043 27.76 55.2043 29.04V38H52.3883V29.04C52.3883 27.376 51.8869 26.2773 50.8843 25.744C50.3723 25.4667 49.3376 25.328 47.7803 25.328H46.4683V38H43.6523V25.328H38.0523V38H35.2363V22.64Z"/>
</mask>
<path d="M5.92 45.296V30.32C5.92 29.2107 6.12267 28.1653 6.528 27.184C6.93333 26.2027 7.488 25.36 8.192 24.656C8.896 23.9307 9.728 23.3653 10.688 22.96C11.648 22.5333 12.672 22.32 13.76 22.32C14.848 22.32 15.8613 22.5333 16.8 22.96C17.76 23.3653 18.592 23.9307 19.296 24.656C20.0213 25.3813 20.5867 26.2347 20.992 27.216C21.3973 28.176 21.6 29.2107 21.6 30.32C21.6 31.4293 21.3973 32.4747 20.992 33.456C20.608 34.416 20.064 35.2587 19.36 35.984C18.656 36.7093 17.824 37.2853 16.864 37.712C15.904 38.1173 14.8693 38.32 13.76 38.32C12.3947 38.32 11.1253 38 9.952 37.36V34.48C10.9973 35.248 12.2347 35.632 13.664 35.632C14.432 35.632 15.1253 35.504 15.744 35.248C16.384 34.9707 16.9173 34.5973 17.344 34.128C17.792 33.6587 18.1333 33.104 18.368 32.464C18.6027 31.8027 18.72 31.088 18.72 30.32C18.72 29.552 18.6027 28.848 18.368 28.208C18.1333 27.5467 17.8027 26.9813 17.376 26.512C16.9493 26.0427 16.4267 25.68 15.808 25.424C15.2107 25.1467 14.528 25.008 13.76 25.008C13.0133 25.008 12.3307 25.136 11.712 25.392C11.1147 25.648 10.592 26.0107 10.144 26.48C9.71733 26.9493 9.38667 27.5147 9.152 28.176C8.91733 28.816 8.8 29.5307 8.8 30.32V45.296H5.92ZM32.5033 25.328H28.8233V38H25.9433V25.328H23.7673L25.0473 22.64H25.9433C25.9433 20.464 26.6793 18.7467 28.1513 17.488C29.6233 16.208 31.5006 15.568 33.7833 15.568V18.256C30.4766 18.256 28.8233 19.7173 28.8233 22.64H32.5033V25.328ZM35.2363 22.64H49.3483C50.8629 22.64 52.0683 22.928 52.9643 23.504C53.8816 24.08 54.4789 24.8267 54.7563 25.744C55.0549 26.6613 55.2043 27.76 55.2043 29.04V38H52.3883V29.04C52.3883 27.376 51.8869 26.2773 50.8843 25.744C50.3723 25.4667 49.3376 25.328 47.7803 25.328H46.4683V38H43.6523V25.328H38.0523V38H35.2363V22.64Z" fill="#FFFEFE"/>
<path d="M5.92 45.296H4.92V46.296H5.92V45.296ZM6.528 27.184L5.60374 26.8022H5.60374L6.528 27.184ZM8.192 24.656L8.89911 25.3631L8.90438 25.3578L8.90958 25.3525L8.192 24.656ZM10.688 22.96L11.077 23.8812L11.0856 23.8776L11.0941 23.8738L10.688 22.96ZM16.8 22.96L16.3862 23.8704L16.3985 23.876L16.411 23.8812L16.8 22.96ZM19.296 24.656L18.5784 25.3525L18.5836 25.3578L18.5889 25.3631L19.296 24.656ZM20.992 27.216L20.0677 27.5978L20.0708 27.605L20.992 27.216ZM20.992 33.456L20.0677 33.0742L20.0635 33.0846L20.992 33.456ZM19.36 35.984L20.0776 36.6805L19.36 35.984ZM16.864 37.712L17.253 38.6332L17.2616 38.6296L17.2701 38.6258L16.864 37.712ZM9.952 37.36H8.952V37.9536L9.47315 38.2379L9.952 37.36ZM9.952 34.48L10.5441 33.6741L8.952 32.5044V34.48H9.952ZM15.744 35.248L16.1264 36.172L16.134 36.1688L16.1416 36.1656L15.744 35.248ZM17.344 34.128L16.6206 33.4375L16.6122 33.4463L16.6041 33.4553L17.344 34.128ZM18.368 32.464L19.3069 32.8083L19.3104 32.7984L18.368 32.464ZM18.368 28.208L17.4255 28.5424L17.4291 28.5523L18.368 28.208ZM17.376 26.512L16.6361 27.1847L17.376 26.512ZM15.808 25.424L15.3869 26.331L15.4061 26.3399L15.4256 26.348L15.808 25.424ZM11.712 25.392L11.3296 24.4679L11.3181 24.4729L11.712 25.392ZM10.144 26.48L9.42064 25.7895L9.41224 25.7983L9.40406 25.8073L10.144 26.48ZM9.152 28.176L10.0909 28.5203L10.0944 28.5104L9.152 28.176ZM8.8 45.296V46.296H9.8V45.296H8.8ZM6.92 45.296V30.32H4.92V45.296H6.92ZM6.92 30.32C6.92 29.3357 7.09916 28.4206 7.45226 27.5658L5.60374 26.8022C5.14617 27.91 4.92 29.0857 4.92 30.32H6.92ZM7.45226 27.5658C7.81071 26.6979 8.29427 25.9679 8.89911 25.3631L7.48489 23.9489C6.68173 24.7521 6.05595 25.7074 5.60374 26.8022L7.45226 27.5658ZM8.90958 25.3525C9.51731 24.7263 10.2366 24.2361 11.077 23.8812L10.299 22.0387C9.21944 22.4946 8.27469 23.135 7.47442 23.9595L8.90958 25.3525ZM11.0941 23.8738C11.9217 23.506 12.8068 23.32 13.76 23.32V21.32C12.5372 21.32 11.3743 21.5607 10.2819 22.0462L11.0941 23.8738ZM13.76 23.32C14.7133 23.32 15.5846 23.506 16.3862 23.8704L17.2138 22.0496C16.1381 21.5607 14.9827 21.32 13.76 21.32V23.32ZM16.411 23.8812C17.2514 24.2361 17.9707 24.7263 18.5784 25.3525L20.0136 23.9595C19.2133 23.135 18.2686 22.4946 17.189 22.0387L16.411 23.8812ZM18.5889 25.3631C19.2179 25.9921 19.7109 26.7338 20.0677 27.5978L21.9163 26.8342C21.4625 25.7356 20.8248 24.7706 20.0031 23.9489L18.5889 25.3631ZM20.0708 27.605C20.4208 28.4341 20.6 29.3355 20.6 30.32H22.6C22.6 29.0858 22.3739 27.9179 21.9132 26.827L20.0708 27.605ZM20.6 30.32C20.6 31.3043 20.4208 32.2194 20.0677 33.0742L21.9163 33.8378C22.3738 32.73 22.6 31.5543 22.6 30.32H20.6ZM20.0635 33.0846C19.7268 33.9264 19.2535 34.6579 18.6424 35.2875L20.0776 36.6805C20.8745 35.8594 21.4892 34.9056 21.9205 33.8274L20.0635 33.0846ZM18.6424 35.2875C18.0309 35.9176 17.3058 36.4213 16.4579 36.7982L17.2701 38.6258C18.3422 38.1493 19.2811 37.5011 20.0776 36.6805L18.6424 35.2875ZM16.475 36.7908C15.6459 37.1408 14.7445 37.32 13.76 37.32V39.32C14.9942 39.32 16.1621 39.0939 17.253 38.6332L16.475 36.7908ZM13.76 37.32C12.5582 37.32 11.454 37.0402 10.4309 36.4821L9.47315 38.2379C10.7966 38.9598 12.2311 39.32 13.76 39.32V37.32ZM10.952 37.36V34.48H8.952V37.36H10.952ZM9.35992 35.2859C10.5944 36.1929 12.0445 36.632 13.664 36.632V34.632C12.4248 34.632 11.4002 34.3031 10.5441 33.6741L9.35992 35.2859ZM13.664 36.632C14.5441 36.632 15.3699 36.485 16.1264 36.172L15.3616 34.324C14.8807 34.523 14.3199 34.632 13.664 34.632V36.632ZM16.1416 36.1656C16.8987 35.8375 17.5527 35.3851 18.0839 34.8007L16.6041 33.4553C16.282 33.8096 15.8693 34.1039 15.3464 34.3304L16.1416 36.1656ZM18.0674 34.8185C18.615 34.2448 19.0274 33.5706 19.3069 32.8083L17.4291 32.1197C17.2393 32.6374 16.969 33.0726 16.6206 33.4375L18.0674 34.8185ZM19.3104 32.7984C19.5866 32.02 19.72 31.1912 19.72 30.32H17.72C17.72 30.9848 17.6187 31.5853 17.4256 32.1296L19.3104 32.7984ZM19.72 30.32C19.72 29.4493 19.5868 28.6271 19.3069 27.8637L17.4291 28.5523C17.6186 29.0689 17.72 29.6547 17.72 30.32H19.72ZM19.3104 27.8736C19.0361 27.1005 18.6409 26.4168 18.1159 25.8393L16.6361 27.1847C16.9644 27.5458 17.2306 27.9928 17.4256 28.5424L19.3104 27.8736ZM18.1159 25.8393C17.5846 25.2548 16.9375 24.8092 16.1904 24.5L15.4256 26.348C15.9158 26.5508 16.3141 26.8305 16.6361 27.1847L18.1159 25.8393ZM16.2291 24.517C15.4797 24.169 14.6495 24.008 13.76 24.008V26.008C14.4065 26.008 14.9417 26.1243 15.3869 26.331L16.2291 24.517ZM13.76 24.008C12.8972 24.008 12.0828 24.1563 11.3296 24.468L12.0944 26.316C12.5786 26.1157 13.1294 26.008 13.76 26.008V24.008ZM11.3181 24.4729C10.5968 24.782 9.96205 25.2223 9.42064 25.7895L10.8674 27.1705C11.222 26.799 11.6325 26.514 12.1059 26.3111L11.3181 24.4729ZM9.40406 25.8073C8.87907 26.3848 8.48389 27.0685 8.20957 27.8416L10.0944 28.5104C10.2894 27.9608 10.5556 27.5138 10.8839 27.1527L9.40406 25.8073ZM8.21312 27.8317C7.93219 28.5979 7.8 29.4315 7.8 30.32H9.8C9.8 29.6299 9.90248 29.0341 10.0909 28.5203L8.21312 27.8317ZM7.8 30.32V45.296H9.8V30.32H7.8ZM8.8 44.296H5.92V46.296H8.8V44.296ZM32.5033 25.328V26.328H33.5033V25.328H32.5033ZM28.8232 25.328V24.328H27.8232V25.328H28.8232ZM28.8232 38V39H29.8232V38H28.8232ZM25.9433 38H24.9433V39H25.9433V38ZM25.9433 25.328H26.9433V24.328H25.9433V25.328ZM23.7673 25.328L22.8644 24.8981L22.1835 26.328H23.7673V25.328ZM25.0473 22.64V21.64H24.4158L24.1444 22.2101L25.0473 22.64ZM25.9433 22.64V23.64H26.9433V22.64H25.9433ZM28.1513 17.488L28.8012 18.2481L28.8074 18.2426L28.1513 17.488ZM33.7833 15.568H34.7833V14.568H33.7833V15.568ZM33.7833 18.256V19.256H34.7833V18.256H33.7833ZM28.8232 22.64H27.8232V23.64H28.8232V22.64ZM32.5033 22.64H33.5033V21.64H32.5033V22.64ZM32.5033 24.328H28.8232V26.328H32.5033V24.328ZM27.8232 25.328V38H29.8232V25.328H27.8232ZM28.8232 37H25.9433V39H28.8232V37ZM26.9433 38V25.328H24.9433V38H26.9433ZM25.9433 24.328H23.7673V26.328H25.9433V24.328ZM24.6701 25.7579L25.9501 23.0699L24.1444 22.2101L22.8644 24.8981L24.6701 25.7579ZM25.0473 23.64H25.9433V21.64H25.0473V23.64ZM26.9433 22.64C26.9433 20.7159 27.5803 19.2919 28.8011 18.248L27.5014 16.728C25.7782 18.2014 24.9433 20.2121 24.9433 22.64H26.9433ZM28.8074 18.2426C30.0672 17.1472 31.6984 16.568 33.7833 16.568V14.568C31.3028 14.568 29.1793 15.2688 27.4951 16.7334L28.8074 18.2426ZM32.7833 15.568V18.256H34.7833V15.568H32.7833ZM33.7833 17.256C32.0041 17.256 30.4829 17.6465 29.401 18.6027C28.2955 19.5798 27.8232 20.9903 27.8232 22.64H29.8232C29.8232 21.367 30.1776 20.5855 30.7255 20.1013C31.2969 19.5962 32.2558 19.256 33.7833 19.256V17.256ZM28.8232 23.64H32.5033V21.64H28.8232V23.64ZM31.5033 22.64V25.328H33.5033V22.64H31.5033ZM35.2362 22.64V21.64H34.2362V22.64H35.2362ZM52.9642 23.504L52.4235 24.3452L52.4325 24.3509L52.9642 23.504ZM54.7562 25.744L53.799 26.0334L53.8021 26.0435L53.8054 26.0536L54.7562 25.744ZM55.2043 38V39H56.2043V38H55.2043ZM52.3883 38H51.3883V39H52.3883V38ZM50.8843 25.744L50.408 26.6233L50.4146 26.6269L50.8843 25.744ZM46.4683 25.328V24.328H45.4683V25.328H46.4683ZM46.4683 38V39H47.4683V38H46.4683ZM43.6523 38H42.6523V39H43.6523V38ZM43.6523 25.328H44.6523V24.328H43.6523V25.328ZM38.0522 25.328V24.328H37.0522V25.328H38.0522ZM38.0522 38V39H39.0522V38H38.0522ZM35.2362 38H34.2362V39H35.2362V38ZM35.2362 23.64H49.3483V21.64H35.2362V23.64ZM49.3483 23.64C50.7484 23.64 51.7433 23.9079 52.4235 24.3452L53.505 22.6628C52.3932 21.9481 50.9775 21.64 49.3483 21.64V23.64ZM52.4325 24.3509C53.1738 24.8164 53.6007 25.3774 53.799 26.0334L55.7135 25.4546C55.3571 24.2759 54.5894 23.3436 53.496 22.6571L52.4325 24.3509ZM53.8054 26.0536C54.0628 26.8444 54.2043 27.8329 54.2043 29.04H56.2043C56.2043 27.6871 56.047 26.4783 55.7071 25.4344L53.8054 26.0536ZM54.2043 29.04V38H56.2043V29.04H54.2043ZM55.2043 37H52.3883V39H55.2043V37ZM53.3883 38V29.04H51.3883V38H53.3883ZM53.3883 29.04C53.3883 27.198 52.8231 25.6426 51.3539 24.8611L50.4146 26.6269C50.9508 26.912 51.3883 27.554 51.3883 29.04H53.3883ZM51.3605 24.8647C50.9445 24.6394 50.4149 24.5156 49.8571 24.4409C49.28 24.3635 48.584 24.328 47.7803 24.328V26.328C48.5338 26.328 49.1338 26.3618 49.5914 26.4231C50.0683 26.487 50.312 26.5713 50.408 26.6233L51.3605 24.8647ZM47.7803 24.328H46.4683V26.328H47.7803V24.328ZM45.4683 25.328V38H47.4683V25.328H45.4683ZM46.4683 37H43.6523V39H46.4683V37ZM44.6523 38V25.328H42.6523V38H44.6523ZM43.6523 24.328H38.0522V26.328H43.6523V24.328ZM37.0522 25.328V38H39.0522V25.328H37.0522ZM38.0522 37H35.2362V39H38.0522V37ZM36.2363 38V22.64H34.2362V38H36.2363Z" fill="url(#paint8_linear_492_637)" mask="url(#path-9-outside-1_492_637)"/>
<path d="M78.92 17.6H81.8V40H74.28C71.9547 40 70.0667 39.264 68.616 37.792C67.1653 36.2987 66.44 34.4213 66.44 32.16C66.44 29.9413 67.1867 28.0853 68.68 26.592C70.1947 25.0773 71.9867 24.32 74.056 24.32C75.3787 24.32 76.616 24.64 77.768 25.28V28.16C76.7013 27.392 75.464 27.008 74.056 27.008C72.776 27.008 71.688 27.488 70.792 28.448C69.9173 29.3867 69.48 30.624 69.48 32.16C69.48 33.7173 69.896 34.9653 70.728 35.904C71.5813 36.8427 72.7653 37.312 74.28 37.312H78.92V17.6ZM93.1588 24.32C96.7854 24.4693 98.5988 25.9733 98.5988 28.832C98.5988 32.3947 96.2628 34.176 91.5908 34.176H90.2788V31.712H91.8148C93.2441 31.712 94.2361 31.4987 94.7908 31.072C95.3454 30.624 95.6228 29.888 95.6228 28.864C95.6228 28.2027 95.3774 27.712 94.8868 27.392C94.3961 27.0507 93.7668 26.88 92.9988 26.88C91.4841 26.88 90.2894 27.4133 89.4148 28.48C88.5614 29.5467 88.1348 30.8267 88.1348 32.32C88.1348 33.8987 88.5934 35.1787 89.5108 36.16C90.4494 37.1413 91.6654 37.632 93.1588 37.632C94.5028 37.632 95.6014 37.3013 96.4548 36.64L98.3748 38.528C96.9028 39.7227 95.1641 40.32 93.1588 40.32C90.7268 40.32 88.7854 39.6053 87.3348 38.176C85.8841 36.7467 85.1588 34.9013 85.1588 32.64C85.1588 30.1227 85.8734 28.0853 87.3028 26.528C88.7321 24.9707 90.6841 24.2347 93.1588 24.32ZM107.299 40.352C105.464 38.624 104.11 36.7147 103.235 34.624C102.382 32.5333 101.528 29.2053 100.675 24.64H103.619C104.451 29.7813 105.678 33.6747 107.299 36.32C108.92 33.6747 110.147 29.7813 110.979 24.64H113.923C113.07 29.2053 112.206 32.5333 111.331 34.624C110.478 36.7147 109.134 38.624 107.299 40.352Z" fill="url(#paint9_linear_492_637)"/>
<defs>
<linearGradient id="paint0_linear_492_637" x1="22.4287" y1="-5.91208e-06" x2="39.7999" y2="0.791759" gradientUnits="userSpaceOnUse">
<stop stop-color="#9011A5"/>
<stop offset="1" stop-color="#201DC1"/>
</linearGradient>
<linearGradient id="paint1_linear_492_637" x1="41.7089" y1="2.17004" x2="44.6627" y2="2.24845" gradientUnits="userSpaceOnUse">
<stop stop-color="#9011A5"/>
<stop offset="1" stop-color="#201DC1"/>
</linearGradient>
<linearGradient id="paint2_linear_492_637" x1="14.2659" y1="2.08885" x2="50.309" y2="3.5122" gradientUnits="userSpaceOnUse">
<stop stop-color="#9011A5"/>
<stop offset="1" stop-color="#201DC1"/>
</linearGradient>
<linearGradient id="paint3_linear_492_637" x1="9.30097" y1="11.1948" x2="56.6304" y2="13.0958" gradientUnits="userSpaceOnUse">
<stop stop-color="#9011A5"/>
<stop offset="1" stop-color="#201DC1"/>
</linearGradient>
<linearGradient id="paint4_linear_492_637" x1="8.35843" y1="24.2859" x2="57.8248" y2="26.2799" gradientUnits="userSpaceOnUse">
<stop stop-color="#9011A5"/>
<stop offset="1" stop-color="#201DC1"/>
</linearGradient>
<linearGradient id="paint5_linear_492_637" x1="9.35538" y1="39.0605" x2="56.4597" y2="41.3831" gradientUnits="userSpaceOnUse">
<stop stop-color="#9011A5"/>
<stop offset="1" stop-color="#201DC1"/>
</linearGradient>
<linearGradient id="paint6_linear_492_637" x1="14.8001" y1="51.3506" x2="49.3636" y2="53.6536" gradientUnits="userSpaceOnUse">
<stop stop-color="#9011A5"/>
<stop offset="1" stop-color="#201DC1"/>
</linearGradient>
<linearGradient id="paint7_linear_492_637" x1="25.0486" y1="59.2295" x2="35.126" y2="61.3745" gradientUnits="userSpaceOnUse">
<stop stop-color="#9011A5"/>
<stop offset="1" stop-color="#201DC1"/>
</linearGradient>
<linearGradient id="paint8_linear_492_637" x1="11.5226" y1="7.99997" x2="56.0949" y2="8.93786" gradientUnits="userSpaceOnUse">
<stop stop-color="#9011A5"/>
<stop offset="1" stop-color="#201DC1"/>
</linearGradient>
<linearGradient id="paint9_linear_492_637" x1="72.3833" y1="9.99997" x2="116.131" y2="10.9035" gradientUnits="userSpaceOnUse">
<stop stop-color="#9011A5"/>
<stop offset="1" stop-color="#201DC1"/>
</linearGradient>
</defs>
</svg>
