<svg width="340" height="269" viewBox="0 0 340 269" fill="none" xmlns="http://www.w3.org/2000/svg">
<path d="M107.307 1.43353L121.077 0.567494C137.441 -0.461699 153.807 2.54873 168.734 9.33365L197.638 22.472C203.532 25.151 209.672 27.2513 215.972 28.7434L266.486 40.7071C309.28 50.8425 339.5 89.0564 339.5 133.034C339.5 153.156 333.103 172.756 321.233 189.004L308.46 206.49C289.631 232.263 259.63 247.5 227.712 247.5H205.768C196.961 247.5 188.193 248.663 179.691 250.96L125.794 265.518C112.411 269.133 98.4226 269.924 84.7179 267.84L83.5418 267.661C44.9526 261.794 13.5129 233.609 3.48062 195.887C-2.02169 175.198 -0.60566 153.278 7.51271 133.469L15.1779 114.766C18.3797 106.953 20.5793 98.7668 21.724 90.4016L23.2025 79.5973C25.3626 63.8117 31.646 48.8745 41.4192 36.2915C57.3659 15.7602 81.3614 3.06532 107.307 1.43353Z" fill="#FC9433"/>
</svg>
