<svg width="40" height="40" viewBox="0 0 40 40" fill="none" xmlns="http://www.w3.org/2000/svg">
<rect width="40" height="40" rx="20" fill="#7943E2"/>
<path d="M11 22.6C11 22.0399 11 21.7599 11.109 21.546C11.2049 21.3578 11.3578 21.2049 11.546 21.109C11.7599 21 12.0399 21 12.6 21H13.4C13.9601 21 14.2401 21 14.454 21.109C14.6422 21.2049 14.7951 21.3578 14.891 21.546C15 21.7599 15 22.0399 15 22.6V27.4C15 27.9601 15 28.2401 14.891 28.454C14.7951 28.6422 14.6422 28.7951 14.454 28.891C14.2401 29 13.9601 29 13.4 29H12.6C12.0399 29 11.7599 29 11.546 28.891C11.3578 28.7951 11.2049 28.6422 11.109 28.454C11 28.2401 11 27.9601 11 27.4V22.6Z" stroke="#FFFEFE" stroke-width="1.5" stroke-linecap="round" stroke-linejoin="round"/>
<path d="M18 12.6C18 12.0399 18 11.7599 18.109 11.546C18.2049 11.3578 18.3578 11.2049 18.546 11.109C18.7599 11 19.0399 11 19.6 11H20.4C20.9601 11 21.2401 11 21.454 11.109C21.6422 11.2049 21.7951 11.3578 21.891 11.546C22 11.7599 22 12.0399 22 12.6V27.4C22 27.9601 22 28.2401 21.891 28.454C21.7951 28.6422 21.6422 28.7951 21.454 28.891C21.2401 29 20.9601 29 20.4 29H19.6C19.0399 29 18.7599 29 18.546 28.891C18.3578 28.7951 18.2049 28.6422 18.109 28.454C18 28.2401 18 27.9601 18 27.4V12.6Z" stroke="#FFFEFE" stroke-width="1.5" stroke-linecap="round" stroke-linejoin="round"/>
<path d="M25 18.6C25 18.0399 25 17.7599 25.109 17.546C25.2049 17.3578 25.3578 17.2049 25.546 17.109C25.7599 17 26.0399 17 26.6 17H27.4C27.9601 17 28.2401 17 28.454 17.109C28.6422 17.2049 28.7951 17.3578 28.891 17.546C29 17.7599 29 18.0399 29 18.6V27.4C29 27.9601 29 28.2401 28.891 28.454C28.7951 28.6422 28.6422 28.7951 28.454 28.891C28.2401 29 27.9601 29 27.4 29H26.6C26.0399 29 25.7599 29 25.546 28.891C25.3578 28.7951 25.2049 28.6422 25.109 28.454C25 28.2401 25 27.9601 25 27.4V18.6Z" stroke="#FFFEFE" stroke-width="1.5" stroke-linecap="round" stroke-linejoin="round"/>
</svg>
