<svg width="154" height="44" viewBox="0 0 154 44" fill="none" xmlns="http://www.w3.org/2000/svg">
<rect width="40" height="40" rx="20" fill="#7943E2"/>
<path d="M12.9996 15V19M17.9996 10V14M25.9996 24V28M10.9996 17H14.9996M15.9996 12H19.9996M23.9996 26H27.9996M21.9996 15L24.828 17.8284M27.5162 11.7461L28.0819 12.3118C28.4779 12.7078 28.6759 12.9058 28.7501 13.1342C28.8154 13.335 28.8154 13.5513 28.7501 13.7522C28.6759 13.9805 28.4779 14.1785 28.0819 14.5745L14.5251 28.1314C14.1291 28.5274 13.9311 28.7254 13.7027 28.7996C13.5019 28.8649 13.2855 28.8649 13.0847 28.7996C12.8564 28.7254 12.6584 28.5274 12.2623 28.1314L11.6966 27.5657C11.3006 27.1697 11.1026 26.9717 11.0284 26.7433C10.9632 26.5425 10.9632 26.3262 11.0284 26.1253C11.1026 25.897 11.3006 25.699 11.6966 25.303L25.2535 11.7461C25.6495 11.3501 25.8475 11.1521 26.0758 11.0779C26.2767 11.0126 26.493 11.0126 26.6939 11.0779C26.9222 11.1521 27.1202 11.3501 27.5162 11.7461Z" stroke="#FFFEFE" stroke-width="1.5" stroke-linecap="round" stroke-linejoin="round"/>
</svg>
