<svg width="41" height="40" viewBox="0 0 41 40" fill="none" xmlns="http://www.w3.org/2000/svg">
<rect x="0.333008" width="40" height="40" rx="20" fill="#7943E2"/>
<path d="M18.333 26H22.333M15.533 11H25.133C26.2531 11 26.8132 11 27.241 11.218C27.6173 11.4097 27.9233 11.7157 28.115 12.092C28.333 12.5198 28.333 13.0799 28.333 14.2V19.8C28.333 20.9201 28.333 21.4802 28.115 21.908C27.9233 22.2843 27.6173 22.5903 27.241 22.782C26.8132 23 26.2531 23 25.133 23H15.533C14.4129 23 13.8529 23 13.4251 22.782C13.0487 22.5903 12.7428 22.2843 12.551 21.908C12.333 21.4802 12.333 20.9201 12.333 19.8V14.2C12.333 13.0799 12.333 12.5198 12.551 12.092C12.7428 11.7157 13.0487 11.4097 13.4251 11.218C13.8529 11 14.4129 11 15.533 11ZM12.9219 29H27.7442C28.6014 29 29.03 29 29.2881 28.8195C29.5135 28.6618 29.6641 28.4183 29.7043 28.1462C29.7503 27.8345 29.5586 27.4512 29.1753 26.6845L28.6597 25.6534C28.1781 24.6902 27.9373 24.2086 27.5781 23.8567C27.2604 23.5456 26.8775 23.309 26.4571 23.164C25.9818 23 25.4433 23 24.3665 23H16.2996C15.2227 23 14.6843 23 14.2089 23.164C13.7885 23.309 13.4057 23.5456 13.088 23.8567C12.7287 24.2086 12.4879 24.6902 12.0063 25.6534L11.4908 26.6845C11.1074 27.4512 10.9158 27.8345 10.9618 28.1462C11.002 28.4183 11.1525 28.6618 11.3779 28.8195C11.6361 29 12.0647 29 12.9219 29Z" stroke="#FFFEFE" stroke-width="1.5" stroke-linecap="round" stroke-linejoin="round"/>
</svg>
