<svg width="577" height="542" viewBox="0 0 577 542" fill="none" xmlns="http://www.w3.org/2000/svg">
<path d="M315.851 541.03L737.588 1M294.757 538.071L728.346 3.9447M273.729 535.031L719.04 6.97013M252.768 531.91L709.664 10.0764M231.878 528.71L700.22 13.2622M211.061 525.432L690.706 16.5264M190.315 522.076L681.117 19.8686M169.645 518.644L671.455 23.2872M149.052 515.136L661.717 26.7811M128.535 511.555L651.899 30.3497M108.099 507.9L642.002 33.9916M87.7456 504.172L632.025 37.7058M67.4751 500.374L621.966 41.4909M47.2875 496.506L611.82 45.3465M27.1877 492.57L601.59 49.2708M7.17321 488.566L591.271 53.2624M-12.7497 484.496L580.865 57.3207M-32.5824 480.361L570.369 61.4439M-52.3236 476.162L559.78 65.6314M-71.9733 471.901L549.097 69.8814M-91.5253 467.579L538.322 74.1925M-110.983 463.197L527.449 78.5636M-130.343 458.756L516.48 82.9938M-149.604 454.259L505.413 87.4815M-168.765 449.705L494.245 92.0244M-187.825 445.098L482.978 96.6226M-206.784 440.437L471.607 101.273M-225.639 435.725L460.133 105.977M-244.389 430.963L448.556 110.73M-263.032 426.152L436.874 115.532M-281.569 421.294L425.084 120.382M-300 416.39L413.186 125.277" stroke="url(#paint0_linear_1344_3504)" stroke-opacity="0.5"/>
<defs>
<linearGradient id="paint0_linear_1344_3504" x1="564.753" y1="95.1418" x2="304.658" y2="509.869" gradientUnits="userSpaceOnUse">
<stop stop-color="#9747FF" stop-opacity="0"/>
<stop offset="0.578125" stop-color="#D9BBFF" stop-opacity="0.51"/>
<stop offset="1" stop-color="#2C80FF" stop-opacity="0"/>
</linearGradient>
</defs>
</svg>
